<svg width="119" height="40" viewBox="0 0 119 40" fill="none" xmlns="http://www.w3.org/2000/svg">
<path fill-rule="evenodd" clip-rule="evenodd" d="M100.187 16.924V14H86.5294V16.924H90.3131H100.187ZM100.187 21.7317V18.808H86.5294V21.7317H90.3131H100.187ZM100.187 23.6148V26.5388H90.3131H86.5294V23.6148H100.187ZM113.85 14L109.853 17.9492L105.855 14H101.041L107.403 20.3699L101.155 26.5415H106.139L109.853 22.8229L113.567 26.5415H118.55L112.303 20.3699L118.664 14H113.85ZM74.3144 23.6148H78.7589C80.7407 23.6148 82.362 22.1095 82.362 20.2694C82.362 18.4294 80.7407 16.9241 78.7589 16.9241H74.3144V23.6148ZM74.3144 14.0001H78.7589C82.4726 14.0001 85.5113 16.8214 85.5113 20.2694C85.5113 23.7174 82.4726 26.5388 78.7589 26.5388H74.3144H72.7395H71.165V17.474V14.0001H74.3144Z" fill="white"/>
<path fill-rule="evenodd" clip-rule="evenodd" d="M44.2511 23.3508H40.0201V16.8441H44.2511C46.1377 16.8441 47.6811 18.3081 47.6811 20.0975C47.6811 21.8869 46.1377 23.3508 44.2511 23.3508ZM44.2511 14.0005H40.0201H37.022V17.3789V26.1945H38.5208H40.0201H44.2511C47.7864 26.1945 50.6792 23.4507 50.6792 20.0975C50.6792 16.7443 47.7864 14.0005 44.2511 14.0005ZM57.693 26.1935V25.0968C57.693 25.0968 57.3702 26.1935 54.8591 26.1935C54.1906 26.1935 53.6419 26.1091 53.2135 25.9404C52.7855 25.7717 52.4483 25.5331 52.2015 25.2233C51.9551 24.9142 51.782 24.5376 51.6827 24.0929C51.5827 23.6488 51.5331 23.1565 51.5331 22.6166V17.2512H54.0322V22.1782C54.0322 22.898 54.1495 23.4349 54.3842 23.7892C54.6187 24.1438 55.0351 24.3207 55.6335 24.3207C56.3139 24.3207 56.8066 24.1266 57.1122 23.7389C57.417 23.3505 57.5694 22.7124 57.5694 21.8239V17.2512H60.0689V26.1935H57.693ZM65.6542 19.0107C66.2847 19.0107 66.755 19.1639 67.0648 19.4709C67.3742 19.778 67.5893 20.2271 67.7105 20.8189H63.5066C63.5186 20.6545 63.5579 20.4681 63.6249 20.2597C63.6911 20.0519 63.8069 19.8546 63.9707 19.6682C64.1341 19.4818 64.3529 19.3259 64.6259 19.1997C64.8989 19.0738 65.2415 19.0107 65.6542 19.0107ZM65.8177 24.4515C65.0897 24.4515 64.5316 24.2818 64.1436 23.9422C63.7548 23.6023 63.5426 23.0542 63.5066 22.2984H70.2954C70.3438 21.6408 70.283 21.0109 70.1134 20.4079C69.943 19.8053 69.6671 19.2681 69.2852 18.7966C68.903 18.3258 68.4142 17.9504 67.8197 17.6706C67.2253 17.3915 66.5275 17.2517 65.7267 17.2517C65.0107 17.2517 64.3587 17.3668 63.7701 17.5969C63.1815 17.8271 62.6752 18.142 62.2504 18.5422C61.8256 18.9423 61.498 19.416 61.2676 19.9641C61.0372 20.5122 60.9221 21.1039 60.9221 21.7391C60.9221 22.3967 61.0342 22.9996 61.2588 23.5474C61.4831 24.0954 61.8016 24.5669 62.2144 24.9611C62.6268 25.3556 63.1302 25.6597 63.7246 25.8738C64.3191 26.0875 64.9867 26.194 65.7267 26.194C66.7947 26.194 67.7047 25.975 68.4568 25.5364C69.2092 25.0985 69.7676 24.3693 70.1316 23.3504H67.8565C67.7713 23.6135 67.5409 23.8627 67.1645 24.0981C66.7885 24.3341 66.3397 24.4515 65.8177 24.4515Z" fill="#007AFF"/>
<g filter="url(#filter0_d)">
<path fill-rule="evenodd" clip-rule="evenodd" d="M19.7924 8H8V32H19.7924C26.506 32 32 26.6 32 20C32 13.4 26.506 8 19.7924 8Z" fill="url(#paint0_linear)"/>
</g>
<path fill-rule="evenodd" clip-rule="evenodd" d="M19.7672 8H8V32C8 32 25.5516 13.3945 27.6199 10.8101C25.4962 9.0511 22.7499 8 19.7672 8Z" fill="url(#paint1_linear)"/>
<path fill-rule="evenodd" clip-rule="evenodd" d="M27.6198 10.8101L17.9716 14.3649L20.2005 16.1671L15.1871 23.6377L14.2365 21.8305L8.00732 31.989L13.5915 26.314L14.732 28.6669L23.565 18.888L25.9124 20.7857L27.6198 10.8101Z" fill="white"/>
<defs>
<filter id="filter0_d" x="0" y="0" width="40" height="40" filterUnits="userSpaceOnUse" color-interpolation-filters="sRGB">
<feFlood flood-opacity="0" result="BackgroundImageFix"/>
<feColorMatrix in="SourceAlpha" type="matrix" values="0 0 0 0 0 0 0 0 0 0 0 0 0 0 0 0 0 0 127 0"/>
<feOffset/>
<feGaussianBlur stdDeviation="4"/>
<feColorMatrix type="matrix" values="0 0 0 0 0 0 0 0 0 0.210463 0 0 0 0 0.470833 0 0 0 0.75 0"/>
<feBlend mode="normal" in2="BackgroundImageFix" result="effect1_dropShadow"/>
<feBlend mode="normal" in="SourceGraphic" in2="effect1_dropShadow" result="shape"/>
</filter>
<linearGradient id="paint0_linear" x1="27.5" y1="11" x2="27.6255" y2="31.9993" gradientUnits="userSpaceOnUse">
<stop stop-color="#007AFF"/>
<stop offset="1" stop-color="#0055BC"/>
</linearGradient>
<linearGradient id="paint1_linear" x1="26" y1="10" x2="7.94773" y2="22.6508" gradientUnits="userSpaceOnUse">
<stop stop-color="#6FB5FF"/>
<stop offset="1" stop-color="#007CFF"/>
</linearGradient>
</defs>
</svg>
